<svg width="254" height="70" viewBox="0 0 254 70" fill="none" xmlns="http://www.w3.org/2000/svg">
<path fill-rule="evenodd" clip-rule="evenodd" d="M64.644 15.8385C64.644 15.5623 64.8678 15.3385 65.144 15.3385H115.144C115.42 15.3385 115.644 15.5623 115.644 15.8385C115.644 16.1146 115.42 16.3385 115.144 16.3385H65.144C64.8678 16.3385 64.644 16.1146 64.644 15.8385ZM66.644 17.8385C66.644 17.5623 66.8678 17.3385 67.144 17.3385H117.144C117.42 17.3385 117.644 17.5623 117.644 17.8385C117.644 18.1146 117.42 18.3385 117.144 18.3385H67.144C66.8678 18.3385 66.644 18.1146 66.644 17.8385ZM68.644 19.8385C68.644 19.5623 68.8678 19.3385 69.144 19.3385H119.144C119.42 19.3385 119.644 19.5623 119.644 19.8385C119.644 20.1146 119.42 20.3385 119.144 20.3385H69.144C68.8678 20.3385 68.644 20.1146 68.644 19.8385Z" fill="#A7D930"/>
<path d="M15.4865 31.3791L28.4847 39.5277L19.5425 0L15.4865 31.3791Z" fill="#A7D930"/>
<path d="M28.4817 55.2393L28.1871 39.9009L0 69.0194L28.4817 55.2393Z" fill="#A7D930"/>
<path d="M41.0355 29.072L30.831 40.5271L71.2969 38.3105L41.0355 29.072Z" fill="#A7D930"/>
<path d="M33.7736 38.2137C34.871 41.336 33.2295 44.7569 30.1071 45.8543C26.9848 46.9518 23.5639 45.3102 22.4665 42.1879C21.369 39.0655 23.0106 35.6447 26.1329 34.5472C29.2553 33.4498 32.6761 35.0913 33.7736 38.2137Z" fill="#A7D930"/>
<path d="M67.561 20.75H43.8099L40.8099 33.875L56.9037 35.4687L63.4037 37.5L39.5912 39.125L35.5287 56.7187H59.9974L58.7787 62H28.1224L38.8412 15.4687H62.4037C62.4037 15.4687 64.194 17.0781 65.3412 18.1094C66.4884 19.1406 67.561 20.75 67.561 20.75Z" fill="#A7D930"/>
<path d="M81.3587 62.7812C79.1504 62.7812 77.192 62.5208 75.4837 62C73.7962 61.4792 72.317 60.6562 71.0462 59.5312C69.817 58.4479 68.8691 57.0833 68.2024 55.4375C67.5358 53.7917 67.2024 51.875 67.2024 49.6875C67.2024 46.4167 68.3829 41.8333 69.4037 39C74.9037 38.5 72.4037 38.5 70.4037 37.5C71.6054 34.8765 76.5723 28.8398 79.7962 28.125C82.4629 26.8958 85.3379 26.2812 88.4212 26.2812C90.4629 26.2812 90.7024 26.5 91.9037 27C93.4037 28.5 96.2946 33.6875 96.9037 35C97.9037 35.5 97.9037 35.5 96.9037 35C96.2787 34.5 94.4004 33.1875 93.5462 32.75C92.692 32.2917 91.7441 31.9167 90.7024 31.625C89.6608 31.3125 88.4733 31.1562 87.1399 31.1562C83.0983 31.1562 79.7962 32.8646 77.2337 36.2812C74.692 39.6979 73.4212 43.8542 73.4212 48.75C73.4212 51.6875 74.1712 53.9479 75.6712 55.5312C77.192 57.1146 79.3483 57.9062 82.1399 57.9062C83.4524 57.9062 84.7649 57.7187 86.0774 57.3437C87.3899 56.9687 88.5045 56.5625 89.4212 56.125C90.442 55.6458 91.3899 55.1354 92.2649 54.5937C93.1399 54.0521 93.7754 53.6458 94.1712 53.375H94.5149L93.2649 59.7812C91.4524 60.5937 89.5358 61.3021 87.5149 61.9062C85.4941 62.4896 83.442 62.7812 81.3587 62.7812Z" fill="#A7D930"/>
<path d="M132.001 39.4375C132.001 42.5625 131.522 45.5625 130.564 48.4375C129.605 51.3125 128.251 53.8125 126.501 55.9375C124.689 58.1458 122.595 59.875 120.22 61.125C117.845 62.3542 115.074 62.9687 111.907 62.9687C107.762 62.9687 104.522 61.7917 102.189 59.4375C99.8762 57.0625 98.7199 53.7917 98.7199 49.625C98.7199 46.5 99.1887 43.5208 100.126 40.6875C101.085 37.8542 102.46 35.3333 104.251 33.125C105.98 31 108.095 29.3021 110.595 28.0312C113.116 26.7604 115.866 26.125 118.845 26.125C122.866 26.125 126.064 27.2708 128.439 29.5625C130.814 31.8542 132.001 35.1458 132.001 39.4375ZM122.439 52.625C123.564 50.9583 124.418 49.0312 125.001 46.8437C125.605 44.6562 125.907 42.3437 125.907 39.9062C125.907 36.9896 125.21 34.7812 123.814 33.2812C122.418 31.7812 120.449 31.0312 117.907 31.0312C115.887 31.0312 114.074 31.5208 112.47 32.5C110.866 33.4583 109.48 34.7812 108.314 36.4687C107.189 38.1146 106.324 40.0417 105.72 42.25C105.116 44.4583 104.814 46.75 104.814 49.125C104.814 52 105.512 54.2083 106.907 55.75C108.303 57.2917 110.282 58.0625 112.845 58.0625C114.845 58.0625 116.657 57.5833 118.282 56.625C119.907 55.6667 121.293 54.3333 122.439 52.625Z" fill="#A7D930"/>
<path d="M167.199 20.75H151.109L141.577 62H135.327L144.859 20.75H128.265L129.452 15.4687H162.904C162.904 15.4687 164.43 17.0237 165.303 18.1094C166.099 19.0985 167.199 20.75 167.199 20.75Z" fill="#A7D930"/>
<path d="M179.025 40.75C179.129 40.1458 179.202 39.6354 179.244 39.2187C179.285 38.8021 179.306 38.3437 179.306 37.8437C179.306 35.6146 178.692 33.875 177.462 32.625C176.254 31.375 174.306 30.75 171.619 30.75C168.66 30.75 166.035 31.6667 163.744 33.5C161.452 35.3333 159.9 37.75 159.087 40.75H179.025ZM167.275 62.8125C162.442 62.8125 158.65 61.6771 155.9 59.4062C153.15 57.1354 151.775 53.8125 151.775 49.4375C151.775 43.0417 153.796 37.5625 157.837 33C161.879 28.4167 166.879 26.125 172.837 26.125C176.796 26.125 179.827 27.1146 181.931 29.0937C184.035 31.0521 185.087 33.8125 185.087 37.375C185.087 38 184.994 38.9896 184.806 40.3437C184.64 41.6979 184.358 43.2708 183.962 45.0625H158.244C158.119 45.6667 158.025 46.2604 157.962 46.8437C157.921 47.4271 157.9 47.9687 157.9 48.4687C157.9 51.4062 158.796 53.7187 160.587 55.4062C162.379 57.0729 164.921 57.9062 168.212 57.9062C170.504 57.9062 172.858 57.4583 175.275 56.5625C177.712 55.6667 179.754 54.6562 181.4 53.5312H181.744L180.462 59.875C179.421 60.25 178.483 60.5937 177.65 60.9062C176.817 61.2187 175.754 61.5312 174.462 61.8437C173.171 62.1562 172.025 62.3958 171.025 62.5625C170.025 62.7292 168.775 62.8125 167.275 62.8125Z" fill="#A7D930"/>
<path d="M202.105 62.7812C199.897 62.7812 197.938 62.5208 196.23 62C194.542 61.4792 193.063 60.6562 191.792 59.5312C190.563 58.4479 189.615 57.0833 188.949 55.4375C188.282 53.7917 187.949 51.875 187.949 49.6875C187.949 46.4167 188.459 43.3646 189.48 40.5312C190.501 37.6979 191.949 35.2083 193.824 33.0625C195.636 30.9792 197.876 29.3333 200.542 28.125C203.209 26.8958 206.084 26.2812 209.167 26.2812C211.209 26.2812 213.404 26.5 214.917 27.125C215.404 27 215.404 27 214.917 27.125L216.904 31.5L218.417 35.4687C217.792 34.9687 215.147 33.1875 214.292 32.75C213.438 32.2917 212.49 31.9167 211.449 31.625C210.407 31.3125 209.22 31.1562 207.886 31.1562C203.845 31.1562 200.542 32.8646 197.98 36.2812C195.438 39.6979 194.167 43.8542 194.167 48.75C194.167 51.6875 194.917 53.9479 196.417 55.5312C197.938 57.1146 200.095 57.9062 202.886 57.9062C204.199 57.9062 205.511 57.7187 206.824 57.3437C208.136 56.9687 209.251 56.5625 210.167 56.125C211.188 55.6458 212.136 55.1354 213.011 54.5937C213.886 54.0521 214.522 53.6458 214.917 53.375H215.261L214.011 59.7812C212.199 60.5937 210.282 61.3021 208.261 61.9062C206.24 62.4896 204.188 62.7812 202.105 62.7812Z" fill="#A7D930"/>
<path d="M253.404 35.0625C253.404 35.5625 253.352 36.2396 253.247 37.0937C253.164 37.9479 253.039 38.6979 252.872 39.3437L249.562 53.6292L241.747 62L244.044 52.0625L246.341 42.125C246.591 41.0208 246.779 40.0625 246.904 39.25C247.05 38.4167 247.122 37.5937 247.122 36.7812C247.122 35.0312 246.685 33.7187 245.81 32.8437C244.956 31.9479 243.404 31.5 241.154 31.5C239.57 31.5 237.82 31.9375 235.904 32.8125C234.008 33.6875 232.154 34.7292 230.341 35.9375L224.31 62H218.435L229.654 13.375H235.529L231.466 30.9687C233.695 29.4062 235.779 28.2083 237.716 27.375C239.675 26.5417 241.685 26.125 243.747 26.125C246.789 26.125 249.154 26.8958 250.841 28.4375C252.55 29.9583 253.404 32.1667 253.404 35.0625Z" fill="#A7D930"/>
</svg>
