<svg width="255" height="70" viewBox="0 0 255 70" fill="none" xmlns="http://www.w3.org/2000/svg">
<path fill-rule="evenodd" clip-rule="evenodd" d="M65.5 16C65.5 15.7239 65.7239 15.5 66 15.5H116C116.276 15.5 116.5 15.7239 116.5 16C116.5 16.2761 116.276 16.5 116 16.5H66C65.7239 16.5 65.5 16.2761 65.5 16ZM67.5 18C67.5 17.7239 67.7239 17.5 68 17.5H118C118.276 17.5 118.5 17.7239 118.5 18C118.5 18.2761 118.276 18.5 118 18.5H68C67.7239 18.5 67.5 18.2761 67.5 18ZM69.5 20C69.5 19.7239 69.7239 19.5 70 19.5H120C120.276 19.5 120.5 19.7239 120.5 20C120.5 20.2761 120.276 20.5 120 20.5H70C69.7239 20.5 69.5 20.2761 69.5 20Z" fill="#28430A"/>
<path d="M16.3425 31.5407L29.3407 39.6893L20.3986 0.161545L16.3425 31.5407Z" fill="#28430A"/>
<path d="M29.3378 55.4008L29.0432 40.0624L0.856041 69.181L29.3378 55.4008Z" fill="#28430A"/>
<path d="M41.8916 29.2335L31.6871 40.6887L72.153 38.472L41.8916 29.2335Z" fill="#28430A"/>
<path d="M34.6296 38.3752C35.7271 41.4976 34.0855 44.9184 30.9632 46.0159C27.8408 47.1133 24.42 45.4718 23.3225 42.3494C22.2251 39.227 23.8666 35.8062 26.989 34.7088C30.1113 33.6113 33.5322 35.2528 34.6296 38.3752Z" fill="#28430A"/>
<path d="M68.4171 20.9115H44.666L41.666 34.0365L57.7597 35.6303L64.2597 37.6615L40.4472 39.2865L36.3847 56.8803H60.8535L59.6347 62.1615H28.9785L39.6972 15.6303H63.2597C63.2597 15.6303 65.0501 17.2397 66.1972 18.2709C67.3444 19.3021 68.4171 20.9115 68.4171 20.9115Z" fill="#28430A"/>
<path d="M82.2147 62.9428C80.0064 62.9428 78.0481 62.6824 76.3397 62.1615C74.6522 61.6407 73.1731 60.8178 71.9022 59.6928C70.6731 58.6094 69.7252 57.2449 69.0585 55.599C68.3918 53.9532 68.0585 52.0365 68.0585 49.849C68.0585 46.5782 69.2389 41.9949 70.2597 39.1615C75.7597 38.6615 73.2597 38.6615 71.2597 37.6615C72.4614 35.038 77.4283 29.0014 80.6522 28.2865C83.3189 27.0574 86.1939 26.4428 89.2772 26.4428C91.3189 26.4428 91.5585 26.6615 92.7597 27.1615C94.2597 28.6615 97.1507 33.849 97.7597 35.1615C98.7597 35.6615 98.7597 35.6615 97.7597 35.1615C97.1347 34.6615 95.2564 33.349 94.4022 32.9115C93.5481 32.4532 92.6002 32.0782 91.5585 31.7865C90.5168 31.474 89.3293 31.3178 87.996 31.3178C83.9543 31.3178 80.6522 33.0261 78.0897 36.4428C75.5481 39.8595 74.2772 44.0157 74.2772 48.9115C74.2772 51.849 75.0272 54.1094 76.5272 55.6928C78.0481 57.2761 80.2043 58.0678 82.996 58.0678C84.3085 58.0678 85.621 57.8803 86.9335 57.5053C88.246 57.1303 89.3606 56.724 90.2772 56.2865C91.2981 55.8074 92.246 55.297 93.121 54.7553C93.996 54.2136 94.6314 53.8074 95.0272 53.5365H95.371L94.121 59.9428C92.3085 60.7553 90.3918 61.4636 88.371 62.0678C86.3502 62.6511 84.2981 62.9428 82.2147 62.9428Z" fill="#28430A"/>
<path d="M132.857 39.599C132.857 42.724 132.378 45.724 131.42 48.599C130.461 51.474 129.107 53.974 127.357 56.099C125.545 58.3074 123.451 60.0365 121.076 61.2865C118.701 62.5157 115.93 63.1303 112.763 63.1303C108.618 63.1303 105.378 61.9532 103.045 59.599C100.732 57.224 99.576 53.9532 99.576 49.7865C99.576 46.6615 100.045 43.6824 100.982 40.849C101.941 38.0157 103.316 35.4949 105.107 33.2865C106.836 31.1615 108.951 29.4636 111.451 28.1928C113.972 26.9219 116.722 26.2865 119.701 26.2865C123.722 26.2865 126.92 27.4324 129.295 29.724C131.67 32.0157 132.857 35.3074 132.857 39.599ZM123.295 52.7865C124.42 51.1199 125.274 49.1928 125.857 47.0053C126.461 44.8178 126.763 42.5053 126.763 40.0678C126.763 37.1511 126.066 34.9428 124.67 33.4428C123.274 31.9428 121.305 31.1928 118.763 31.1928C116.743 31.1928 114.93 31.6824 113.326 32.6615C111.722 33.6199 110.336 34.9428 109.17 36.6303C108.045 38.2761 107.18 40.2032 106.576 42.4115C105.972 44.6199 105.67 46.9115 105.67 49.2865C105.67 52.1615 106.368 54.3699 107.763 55.9115C109.159 57.4532 111.138 58.224 113.701 58.224C115.701 58.224 117.513 57.7449 119.138 56.7865C120.763 55.8282 122.149 54.4949 123.295 52.7865Z" fill="#28430A"/>
<path d="M168.055 20.9115H151.965L142.433 62.1615H136.183L145.715 20.9115H129.121L130.308 15.6303H163.76C163.76 15.6303 165.286 17.1852 166.159 18.2709C166.955 19.26 168.055 20.9115 168.055 20.9115Z" fill="#28430A"/>
<path d="M179.881 40.9115C179.985 40.3074 180.058 39.797 180.1 39.3803C180.141 38.9636 180.162 38.5053 180.162 38.0053C180.162 35.7761 179.548 34.0365 178.318 32.7865C177.11 31.5365 175.162 30.9115 172.475 30.9115C169.516 30.9115 166.891 31.8282 164.6 33.6615C162.308 35.4949 160.756 37.9115 159.943 40.9115H179.881ZM168.131 62.974C163.298 62.974 159.506 61.8386 156.756 59.5678C154.006 57.297 152.631 53.974 152.631 49.599C152.631 43.2032 154.652 37.724 158.693 33.1615C162.735 28.5782 167.735 26.2865 173.693 26.2865C177.652 26.2865 180.683 27.2761 182.787 29.2553C184.891 31.2136 185.943 33.974 185.943 37.5365C185.943 38.1615 185.85 39.1511 185.662 40.5053C185.496 41.8594 185.214 43.4324 184.818 45.224H159.1C158.975 45.8282 158.881 46.422 158.818 47.0053C158.777 47.5886 158.756 48.1303 158.756 48.6303C158.756 51.5678 159.652 53.8803 161.443 55.5678C163.235 57.2344 165.777 58.0678 169.068 58.0678C171.36 58.0678 173.714 57.6199 176.131 56.724C178.568 55.8282 180.61 54.8178 182.256 53.6928H182.6L181.318 60.0365C180.277 60.4115 179.339 60.7553 178.506 61.0678C177.673 61.3803 176.61 61.6928 175.318 62.0053C174.027 62.3178 172.881 62.5574 171.881 62.724C170.881 62.8907 169.631 62.974 168.131 62.974Z" fill="#28430A"/>
<path d="M202.961 62.9428C200.753 62.9428 198.794 62.6824 197.086 62.1615C195.398 61.6407 193.919 60.8178 192.648 59.6928C191.419 58.6094 190.471 57.2449 189.805 55.599C189.138 53.9532 188.805 52.0365 188.805 49.849C188.805 46.5782 189.315 43.5261 190.336 40.6928C191.357 37.8595 192.805 35.3699 194.68 33.224C196.492 31.1407 198.732 29.4949 201.398 28.2865C204.065 27.0574 206.94 26.4428 210.023 26.4428C212.065 26.4428 214.26 26.6615 215.773 27.2865C216.26 27.1615 216.26 27.1615 215.773 27.2865L217.76 31.6615L219.273 35.6303C218.648 35.1303 216.003 33.349 215.148 32.9115C214.294 32.4532 213.346 32.0782 212.305 31.7865C211.263 31.474 210.076 31.3178 208.742 31.3178C204.701 31.3178 201.398 33.0261 198.836 36.4428C196.294 39.8595 195.023 44.0157 195.023 48.9115C195.023 51.849 195.773 54.1094 197.273 55.6928C198.794 57.2761 200.951 58.0678 203.742 58.0678C205.055 58.0678 206.367 57.8803 207.68 57.5053C208.992 57.1303 210.107 56.724 211.023 56.2865C212.044 55.8074 212.992 55.297 213.867 54.7553C214.742 54.2136 215.378 53.8074 215.773 53.5365H216.117L214.867 59.9428C213.055 60.7553 211.138 61.4636 209.117 62.0678C207.096 62.6511 205.044 62.9428 202.961 62.9428Z" fill="#28430A"/>
<path d="M254.26 35.224C254.26 35.724 254.208 36.4011 254.103 37.2553C254.02 38.1095 253.895 38.8595 253.728 39.5053L250.418 53.7907L242.603 62.1615L244.9 52.224L247.197 42.2865C247.447 41.1824 247.635 40.224 247.76 39.4115C247.906 38.5782 247.978 37.7553 247.978 36.9428C247.978 35.1928 247.541 33.8803 246.666 33.0053C245.812 32.1095 244.26 31.6615 242.01 31.6615C240.426 31.6615 238.676 32.099 236.76 32.974C234.864 33.849 233.01 34.8907 231.197 36.099L225.166 62.1615H219.291L230.51 13.5365H236.385L232.322 31.1303C234.551 29.5678 236.635 28.3699 238.572 27.5365C240.531 26.7032 242.541 26.2865 244.603 26.2865C247.645 26.2865 250.01 27.0574 251.697 28.599C253.406 30.1199 254.26 32.3282 254.26 35.224Z" fill="#28430A"/>
</svg>
